<svg xmlns="http://www.w3.org/2000/svg" width="16" height="16" fill="none" viewBox="0 0 16 16"><g id="idea/community/platform/icons/src/general/inspectionsTrafficOff"><path id="Combined Shape" fill="#6E6E6E" fill-rule="evenodd" d="M3.5 5C2.11929 5 1 6.11929 1 7.5V8.5C1 9.88071 2.11929 11 3.5 11C4.88071 11 6 9.88071 6 8.5V7.5C6 6.11929 4.88071 5 3.5 5ZM3.5 6C2.67157 6 2 6.67157 2 7.5V8.5C2 9.32843 2.67157 10 3.5 10C4.32843 10 5 9.32843 5 8.5V7.5C5 6.67157 4.32843 6 3.5 6Z" clip-rule="evenodd"/><rect id="Rectangle 46" width="1" height="6" x="7" y="5" fill="#6E6E6E"/><rect id="Rectangle 47" width="3" height="1" x="7" y="5" fill="#6E6E6E"/><rect id="Rectangle 47_2" width="3" height="1" x="7" y="7.5" fill="#6E6E6E"/><rect id="Rectangle 46_2" width="1" height="6" x="11" y="5" fill="#6E6E6E"/><rect id="Rectangle 47_3" width="3" height="1" x="11" y="5" fill="#6E6E6E"/><rect id="Rectangle 47_4" width="3" height="1" x="11" y="7.5" fill="#6E6E6E"/></g></svg>