<svg xmlns="http://www.w3.org/2000/svg" style="width:919px;height:969px" width="919" height="969" contentScriptType="application/ecmascript" contentStyleType="text/css" preserveAspectRatio="none" version="1.1" viewBox="0 0 919 969" zoomAndPan="magnify"><style>@import url(https://fonts.googleapis.com/css?family=Roboto|Roboto+Mono&amp;display=swap);.code,.text{font-size:14px}.text{font-family:&apos;Roboto&apos;,sans-serif}.code{font-family:&apos;Roboto Mono&apos;,monospace}.note,.process{stroke:#383838;stroke-width:1}.process{fill:#f8f8f8}.note{fill:#ececec}</style><defs><filter id="f184fee447dtf9" width="300%" height="300%" x="-1" y="-1"><feGaussianBlur result="blurOut" stdDeviation="2"/><feColorMatrix in="blurOut" result="blurOut2" type="matrix" values="0 0 0 0 0 0 0 0 0 0 0 0 0 0 0 0 0 0 .4 0"/><feOffset dx="4" dy="4" in="blurOut2" result="blurOut3"/><feBlend in="SourceGraphic" in2="blurOut3" mode="normal"/></filter></defs><g><path d="M359,15.959 L359,25.2031 L339,29.2031 L359,33.2031 L359,42.4473 A0,0 0 0 0 359,42.4473 L670,42.4473 A0,0 0 0 0 670,42.4473 L670,25.959 L660,15.959 L359,15.959 A0,0 0 0 0 359,15.959" class="note" filter="url(#f184fee447dtf9)"/><path d="M660,15.959 L660,25.959 L670,25.959 L660,15.959" class="note"/><text x="365" y="34.029" class="text" lengthAdjust="spacingAndGlyphs" textLength="151">Externally called method</text><text x="519" y="34.494" class="code" lengthAdjust="spacingAndGlyphs" textLength="136">IconLoader.findIcon</text><rect width="74" height="36.406" x="265" y="11" class="process" filter="url(#f184fee447dtf9)" rx="12.5" ry="12.5"/><text x="275" y="33.988" class="text" lengthAdjust="spacingAndGlyphs" textLength="54">find-icon</text><path d="M374.5,64.1211 L374.5,81.6094 L354.5,85.6094 L374.5,89.6094 L374.5,107.0977 A0,0 0 0 0 374.5,107.0977 L907.5,107.0977 A0,0 0 0 0 907.5,107.0977 L907.5,74.1211 L897.5,64.1211 L374.5,64.1211 A0,0 0 0 0 374.5,64.1211" class="note" filter="url(#f184fee447dtf9)"/><path d="M897.5,64.1211 L897.5,74.1211 L907.5,74.1211 L897.5,64.1211" class="note"/><text x="380.5" y="82.191" class="text" lengthAdjust="spacingAndGlyphs" textLength="148">Internally called method</text><text x="531.5" y="82.656" class="code" lengthAdjust="spacingAndGlyphs" textLength="198">CachedImageIcon.loadImage</text><text x="729.5" y="82.191" class="text" lengthAdjust="spacingAndGlyphs" textLength="4">.</text><text x="380.5" y="98.68" class="text" lengthAdjust="spacingAndGlyphs" textLength="164">Called numerous times per</text><text x="547.5" y="99.144" class="code" lengthAdjust="spacingAndGlyphs" textLength="122">CachedImageIcon</text><text x="672.5" y="98.68" class="text" lengthAdjust="spacingAndGlyphs" textLength="220">instance — to compute a new scale.</text><rect width="105" height="36.406" x="249.5" y="67.406" class="process" filter="url(#f184fee447dtf9)" rx="12.5" ry="12.5"/><text x="259.5" y="90.394" class="text" lengthAdjust="spacingAndGlyphs" textLength="85">find-icon-load</text><polygon fill="#F8F8F8" points="281.5 127.098 322.5 127.098 334.5 139.098 322.5 151.098 281.5 151.098 269.5 139.098 281.5 127.098" filter="url(#f184fee447dtf9)" style="stroke:#383838;stroke-width:1"/><text x="281.5" y="143.883" class="text" lengthAdjust="spacingAndGlyphs" textLength="41">Is SVG</text><text x="248.5" y="135.68" class="text" lengthAdjust="spacingAndGlyphs" textLength="21">yes</text><text x="334.5" y="135.68" class="text" lengthAdjust="spacingAndGlyphs" textLength="16">no</text><rect width="73" height="36.406" x="218.5" y="161.098" class="process" filter="url(#f184fee447dtf9)"/><text x="228.5" y="184.086" class="text" lengthAdjust="spacingAndGlyphs" textLength="53">svg-load</text><rect width="75" height="36.406" x="311.5" y="161.098" class="process" filter="url(#f184fee447dtf9)"/><text x="321.5" y="184.086" class="text" lengthAdjust="spacingAndGlyphs" textLength="55">png-load</text><polygon fill="#F8F8F8" points="302 203.504 314 215.504 302 227.504 290 215.504 302 203.504" filter="url(#f184fee447dtf9)" style="stroke:#383838;stroke-width:1"/><polygon fill="#F8F8F8" points="222 297.707 382 297.707 394 309.707 382 321.707 222 321.707 210 309.707 222 297.707" filter="url(#f184fee447dtf9)" style="stroke:#383838;stroke-width:1"/><text x="222" y="314.492" class="text" lengthAdjust="spacingAndGlyphs" textLength="160">Is resourceClass Provided</text><text x="189" y="306.289" class="text" lengthAdjust="spacingAndGlyphs" textLength="21">yes</text><text x="394" y="306.289" class="text" lengthAdjust="spacingAndGlyphs" textLength="16">no</text><rect width="139" height="36.406" x="100.5" y="331.707" class="process" filter="url(#f184fee447dtf9)"/><text x="110.5" y="354.695" class="text" lengthAdjust="spacingAndGlyphs" textLength="119">load-from-resource</text><polygon fill="#F8F8F8" points="85 388.113 255 388.113 267 400.113 255 412.113 85 412.113 73 400.113 85 388.113" filter="url(#f184fee447dtf9)" style="stroke:#383838;stroke-width:1"/><text x="85" y="404.898" class="text" lengthAdjust="spacingAndGlyphs" textLength="170">Is prebuiltCacheId Provided</text><text x="52" y="396.695" class="text" lengthAdjust="spacingAndGlyphs" textLength="21">yes</text><rect width="93" height="36.406" x="16.5" y="422.113" class="process" filter="url(#f184fee447dtf9)"/><text x="26.5" y="445.102" class="text" lengthAdjust="spacingAndGlyphs" textLength="73">svg-prebuilt</text><rect width="104" height="36.406" x="11" y="493.519" class="process" filter="url(#f184fee447dtf9)" rx="12.5" ry="12.5"/><text x="21" y="516.508" class="text" lengthAdjust="spacingAndGlyphs" textLength="84">Return Image</text><rect width="91" height="36.488" x="231.5" y="472.316" class="process" filter="url(#f184fee447dtf9)" rx="12.5" ry="12.5"/><text x="241.5" y="495.387" class="text" lengthAdjust="spacingAndGlyphs" textLength="42">Return</text><text x="286.5" y="495.852" class="code" lengthAdjust="spacingAndGlyphs" textLength="26">null</text><polygon fill="#F8F8F8" points="224.5 422.113 329.5 422.113 341.5 434.113 329.5 446.113 224.5 446.113 212.5 434.113 224.5 422.113" filter="url(#f184fee447dtf9)" style="stroke:#383838;stroke-width:1"/><text x="281" y="459.102" class="text" lengthAdjust="spacingAndGlyphs" textLength="16">no</text><text x="224.5" y="438.898" class="text" lengthAdjust="spacingAndGlyphs" textLength="105">Is Resource Exist</text><text x="341.5" y="430.695" class="text" lengthAdjust="spacingAndGlyphs" textLength="21">yes</text><rect width="101" height="36.406" x="383.5" y="331.707" class="process" filter="url(#f184fee447dtf9)"/><text x="393.5" y="354.695" class="text" lengthAdjust="spacingAndGlyphs" textLength="81">load-from-url</text><polygon fill="#F8F8F8" points="302 551.008 314 563.008 302 575.008 290 563.008 302 551.008" filter="url(#f184fee447dtf9)" style="stroke:#383838;stroke-width:1"/><polygon fill="#F8F8F8" points="281.5 601.467 322.5 601.467 334.5 613.467 322.5 625.467 281.5 625.467 269.5 613.467 281.5 601.467" filter="url(#f184fee447dtf9)" style="stroke:#383838;stroke-width:1"/><text x="281.5" y="618.252" class="text" lengthAdjust="spacingAndGlyphs" textLength="41">Is SVG</text><text x="248.5" y="610.049" class="text" lengthAdjust="spacingAndGlyphs" textLength="21">yes</text><text x="334.5" y="610.049" class="text" lengthAdjust="spacingAndGlyphs" textLength="16">no</text><rect width="115" height="36.406" x="177.5" y="635.467" class="process" filter="url(#f184fee447dtf9)"/><text x="187.5" y="658.455" class="text" lengthAdjust="spacingAndGlyphs" textLength="95">svg-cache-read</text><rect width="91" height="36.406" x="189.5" y="742.076" class="process" filter="url(#f184fee447dtf9)"/><text x="199.5" y="765.064" class="text" lengthAdjust="spacingAndGlyphs" textLength="71">svg-decode</text><polygon fill="#F8F8F8" points="204.5 691.873 265.5 691.873 277.5 703.873 265.5 715.873 204.5 715.873 192.5 703.873 204.5 691.873" filter="url(#f184fee447dtf9)" style="stroke:#383838;stroke-width:1"/><text x="239" y="728.861" class="text" lengthAdjust="spacingAndGlyphs" textLength="16">no</text><text x="204.5" y="708.658" class="text" lengthAdjust="spacingAndGlyphs" textLength="61">Is Cached</text><text x="277.5" y="700.455" class="text" lengthAdjust="spacingAndGlyphs" textLength="21">yes</text><polygon fill="#F8F8F8" points="235 798.482 247 810.482 235 822.482 223 810.482 235 798.482" filter="url(#f184fee447dtf9)" style="stroke:#383838;stroke-width:1"/><rect width="93" height="36.406" x="322.5" y="635.467" class="process" filter="url(#f184fee447dtf9)"/><text x="332.5" y="658.455" class="text" lengthAdjust="spacingAndGlyphs" textLength="73">png-decode</text><polygon fill="#F8F8F8" points="302 828.482 314 840.482 302 852.482 290 840.482 302 828.482" filter="url(#f184fee447dtf9)" style="stroke:#383838;stroke-width:1"/><polygon fill="#F8F8F8" points="271.5 247.504 332.5 247.504 344.5 259.504 332.5 271.504 271.5 271.504 259.5 259.504 271.5 247.504" filter="url(#f184fee447dtf9)" style="stroke:#383838;stroke-width:1"/><text x="306" y="284.492" class="text" lengthAdjust="spacingAndGlyphs" textLength="16">no</text><text x="271.5" y="264.289" class="text" lengthAdjust="spacingAndGlyphs" textLength="61">Is Cached</text><text x="344.5" y="256.086" class="text" lengthAdjust="spacingAndGlyphs" textLength="21">yes</text><polygon fill="#F8F8F8" points="302 872.482 314 884.482 302 896.482 290 884.482 302 872.482" filter="url(#f184fee447dtf9)" style="stroke:#383838;stroke-width:1"/><rect width="104" height="36.406" x="250" y="916.482" class="process" filter="url(#f184fee447dtf9)" rx="12.5" ry="12.5"/><text x="260" y="939.471" class="text" lengthAdjust="spacingAndGlyphs" textLength="84">Return Image</text><line style="stroke:#383838;stroke-width:1.5" x1="302" x2="302" y1="47.406" y2="67.406"/><polygon fill="#383838" points="298 57.406 302 67.406 306 57.406 302 61.406" style="stroke:#383838;stroke-width:1"/><line style="stroke:#383838;stroke-width:1.5" x1="269.5" x2="255" y1="139.098" y2="139.098"/><line style="stroke:#383838;stroke-width:1.5" x1="255" x2="255" y1="139.098" y2="161.098"/><polygon fill="#383838" points="251 151.098 255 161.098 259 151.098 255 155.098" style="stroke:#383838;stroke-width:1"/><line style="stroke:#383838;stroke-width:1.5" x1="334.5" x2="349" y1="139.098" y2="139.098"/><line style="stroke:#383838;stroke-width:1.5" x1="349" x2="349" y1="139.098" y2="161.098"/><polygon fill="#383838" points="345 151.098 349 161.098 353 151.098 349 155.098" style="stroke:#383838;stroke-width:1"/><line style="stroke:#383838;stroke-width:1.5" x1="255" x2="255" y1="197.504" y2="215.504"/><line style="stroke:#383838;stroke-width:1.5" x1="255" x2="290" y1="215.504" y2="215.504"/><polygon fill="#383838" points="280 211.504 290 215.504 280 219.504 284 215.504" style="stroke:#383838;stroke-width:1"/><line style="stroke:#383838;stroke-width:1.5" x1="349" x2="349" y1="197.504" y2="215.504"/><line style="stroke:#383838;stroke-width:1.5" x1="349" x2="314" y1="215.504" y2="215.504"/><polygon fill="#383838" points="324 211.504 314 215.504 324 219.504 320 215.504" style="stroke:#383838;stroke-width:1"/><line style="stroke:#383838;stroke-width:1.5" x1="302" x2="302" y1="103.813" y2="127.098"/><polygon fill="#383838" points="298 117.098 302 127.098 306 117.098 302 121.098" style="stroke:#383838;stroke-width:1"/><line style="stroke:#383838;stroke-width:1.5" x1="63" x2="63" y1="458.519" y2="493.519"/><polygon fill="#383838" points="59 483.519 63 493.519 67 483.519 63 487.519" style="stroke:#383838;stroke-width:1"/><line style="stroke:#383838;stroke-width:1.5" x1="277" x2="277" y1="446.113" y2="472.316"/><polygon fill="#383838" points="273 462.316 277 472.316 281 462.316 277 466.316" style="stroke:#383838;stroke-width:1"/><line style="stroke:#383838;stroke-width:1.5" x1="341.5" x2="353.5" y1="434.113" y2="434.113"/><polygon fill="#383838" points="349.5 480.56 353.5 490.56 357.5 480.56 353.5 484.56" style="stroke:#383838;stroke-width:1.5"/><line style="stroke:#383838;stroke-width:1.5" x1="353.5" x2="353.5" y1="434.113" y2="546.008"/><line style="stroke:#383838;stroke-width:1.5" x1="353.5" x2="170" y1="546.008" y2="546.008"/><line style="stroke:#383838;stroke-width:1.5" x1="170" x2="170" y1="546.008" y2="563.008"/><line style="stroke:#383838;stroke-width:1.5" x1="170" x2="290" y1="563.008" y2="563.008"/><polygon fill="#383838" points="280 559.008 290 563.008 280 567.008 284 563.008" style="stroke:#383838;stroke-width:1"/><line style="stroke:#383838;stroke-width:1.5" x1="73" x2="63" y1="400.113" y2="400.113"/><line style="stroke:#383838;stroke-width:1.5" x1="63" x2="63" y1="400.113" y2="422.113"/><polygon fill="#383838" points="59 412.113 63 422.113 67 412.113 63 416.113" style="stroke:#383838;stroke-width:1"/><line style="stroke:#383838;stroke-width:1.5" x1="267" x2="277" y1="400.113" y2="400.113"/><line style="stroke:#383838;stroke-width:1.5" x1="277" x2="277" y1="400.113" y2="422.113"/><polygon fill="#383838" points="273 412.113 277 422.113 281 412.113 277 416.113" style="stroke:#383838;stroke-width:1"/><line style="stroke:#383838;stroke-width:1.5" x1="170" x2="170" y1="368.113" y2="388.113"/><polygon fill="#383838" points="166 378.113 170 388.113 174 378.113 170 382.113" style="stroke:#383838;stroke-width:1"/><line style="stroke:#383838;stroke-width:1.5" x1="210" x2="170" y1="309.707" y2="309.707"/><line style="stroke:#383838;stroke-width:1.5" x1="170" x2="170" y1="309.707" y2="331.707"/><polygon fill="#383838" points="166 321.707 170 331.707 174 321.707 170 325.707" style="stroke:#383838;stroke-width:1"/><line style="stroke:#383838;stroke-width:1.5" x1="394" x2="434" y1="309.707" y2="309.707"/><line style="stroke:#383838;stroke-width:1.5" x1="434" x2="434" y1="309.707" y2="331.707"/><polygon fill="#383838" points="430 321.707 434 331.707 438 321.707 434 325.707" style="stroke:#383838;stroke-width:1"/><line style="stroke:#383838;stroke-width:1.5" x1="434" x2="434" y1="368.113" y2="563.008"/><line style="stroke:#383838;stroke-width:1.5" x1="434" x2="314" y1="563.008" y2="563.008"/><polygon fill="#383838" points="324 559.008 314 563.008 324 567.008 320 563.008" style="stroke:#383838;stroke-width:1"/><line style="stroke:#383838;stroke-width:1.5" x1="235" x2="235" y1="715.873" y2="742.076"/><polygon fill="#383838" points="231 732.076 235 742.076 239 732.076 235 736.076" style="stroke:#383838;stroke-width:1"/><line style="stroke:#383838;stroke-width:1.5" x1="277.5" x2="290.5" y1="703.873" y2="703.873"/><polygon fill="#383838" points="286.5 750.279 290.5 760.279 294.5 750.279 290.5 754.279" style="stroke:#383838;stroke-width:1.5"/><line style="stroke:#383838;stroke-width:1.5" x1="290.5" x2="290.5" y1="703.873" y2="810.482"/><line style="stroke:#383838;stroke-width:1.5" x1="290.5" x2="247" y1="810.482" y2="810.482"/><polygon fill="#383838" points="257 806.482 247 810.482 257 814.482 253 810.482" style="stroke:#383838;stroke-width:1"/><line style="stroke:#383838;stroke-width:1.5" x1="235" x2="235" y1="778.482" y2="798.482"/><polygon fill="#383838" points="231 788.482 235 798.482 239 788.482 235 792.482" style="stroke:#383838;stroke-width:1"/><line style="stroke:#383838;stroke-width:1.5" x1="235" x2="235" y1="671.873" y2="691.873"/><polygon fill="#383838" points="231 681.873 235 691.873 239 681.873 235 685.873" style="stroke:#383838;stroke-width:1"/><line style="stroke:#383838;stroke-width:1.5" x1="269.5" x2="235" y1="613.467" y2="613.467"/><line style="stroke:#383838;stroke-width:1.5" x1="235" x2="235" y1="613.467" y2="635.467"/><polygon fill="#383838" points="231 625.467 235 635.467 239 625.467 235 629.467" style="stroke:#383838;stroke-width:1"/><line style="stroke:#383838;stroke-width:1.5" x1="334.5" x2="369" y1="613.467" y2="613.467"/><line style="stroke:#383838;stroke-width:1.5" x1="369" x2="369" y1="613.467" y2="635.467"/><polygon fill="#383838" points="365 625.467 369 635.467 373 625.467 369 629.467" style="stroke:#383838;stroke-width:1"/><line style="stroke:#383838;stroke-width:1.5" x1="235" x2="235" y1="822.482" y2="840.482"/><line style="stroke:#383838;stroke-width:1.5" x1="235" x2="290" y1="840.482" y2="840.482"/><polygon fill="#383838" points="280 836.482 290 840.482 280 844.482 284 840.482" style="stroke:#383838;stroke-width:1"/><line style="stroke:#383838;stroke-width:1.5" x1="369" x2="369" y1="671.873" y2="840.482"/><line style="stroke:#383838;stroke-width:1.5" x1="369" x2="314" y1="840.482" y2="840.482"/><polygon fill="#383838" points="324 836.482 314 840.482 324 844.482 320 840.482" style="stroke:#383838;stroke-width:1"/><line style="stroke:#383838;stroke-width:1.5" x1="302" x2="302" y1="575.008" y2="601.467"/><polygon fill="#383838" points="298 591.467 302 601.467 306 591.467 302 595.467" style="stroke:#383838;stroke-width:1"/><line style="stroke:#383838;stroke-width:1.5" x1="302" x2="302" y1="271.504" y2="297.707"/><polygon fill="#383838" points="298 287.707 302 297.707 306 287.707 302 291.707" style="stroke:#383838;stroke-width:1"/><line style="stroke:#383838;stroke-width:1.5" x1="344.5" x2="504.5" y1="259.504" y2="259.504"/><polygon fill="#383838" points="500.5 571.467 504.5 581.467 508.5 571.467 504.5 575.467" style="stroke:#383838;stroke-width:1.5"/><line style="stroke:#383838;stroke-width:1.5" x1="504.5" x2="504.5" y1="259.504" y2="884.482"/><line style="stroke:#383838;stroke-width:1.5" x1="504.5" x2="314" y1="884.482" y2="884.482"/><polygon fill="#383838" points="324 880.482 314 884.482 324 888.482 320 884.482" style="stroke:#383838;stroke-width:1"/><line style="stroke:#383838;stroke-width:1.5" x1="302" x2="302" y1="852.482" y2="872.482"/><polygon fill="#383838" points="298 862.482 302 872.482 306 862.482 302 866.482" style="stroke:#383838;stroke-width:1"/><line style="stroke:#383838;stroke-width:1.5" x1="302" x2="302" y1="227.504" y2="247.504"/><polygon fill="#383838" points="298 237.504 302 247.504 306 237.504 302 241.504" style="stroke:#383838;stroke-width:1"/><line style="stroke:#383838;stroke-width:1.5" x1="302" x2="302" y1="896.482" y2="916.482"/><polygon fill="#383838" points="298 906.482 302 916.482 306 906.482 302 910.482" style="stroke:#383838;stroke-width:1"/></g></svg>