<svg xmlns="http://www.w3.org/2000/svg" width="16" height="16" fill="none" viewBox="0 0 16 16"><path fill="url(#paint0_linear)" fill-rule="evenodd" d="M3.53507 15C8.51863 14.5642 12.8894 11.4997 14.9999 6.96445C12.3633 3.20224 8.07518 1 3.53551 1C3.12852 1 2.71965 1.01769 2.30963 1.05355C0.199111 5.58889 0.662064 10.9005 3.53507 15Z" clip-rule="evenodd"/><path fill="url(#paint1_linear)" fill-rule="evenodd" d="M2.32324 1.05368C2.32324 1.05368 6.76213 2.61994 9.68964 6.96459H14.9999C12.3758 3.20237 8.08868 1.00013 3.54911 1.00013C3.14214 1.00013 2.73325 1.01783 2.32324 1.05368Z" clip-rule="evenodd"/><path fill="url(#paint2_linear)" fill-rule="evenodd" d="M9.69024 6.96459C9.05022 11.1975 3.53503 15 3.53503 15C8.549 14.5241 12.9488 11.5183 14.9999 6.96308L9.69024 6.96459Z" clip-rule="evenodd"/><defs><linearGradient id="paint0_linear" x1="7.312" x2="8.773" y1=".809" y2="14.662" gradientUnits="userSpaceOnUse"><stop stop-color="#FCF84A"/><stop offset="1" stop-color="#07C3F2"/></linearGradient><linearGradient id="paint1_linear" x1="1.953" x2="15.059" y1="1.021" y2="7.238" gradientUnits="userSpaceOnUse"><stop offset=".001" stop-color="#3BEA62"/><stop offset=".998" stop-color="#087CFA"/></linearGradient><linearGradient id="paint2_linear" x1="4.5" x2="16.346" y1="14.781" y2="5.32" gradientUnits="userSpaceOnUse"><stop stop-color="#009AE5"/><stop offset="1" stop-color="#293896"/></linearGradient></defs></svg>